TITLE ""
FILE "P1Q_t_1420-1429.mp3" MP3
  TRACK 01 AUDIO
    TITLE "P1Q_t_1420-1429_01"
    INDEX 01 00:00:00
  TRACK 02 AUDIO
    TITLE "P1Q_t_1420-1429_02"
    INDEX 01 00:01:02
  TRACK 03 AUDIO
    TITLE "P1Q_t_1420-1429_03"
    INDEX 01 00:01:22
  TRACK 04 AUDIO
    TITLE "P1Q_t_1420-1429_04"
    INDEX 01 00:03:13
  TRACK 05 AUDIO
    TITLE "P1Q_t_1420-1429_05"
    INDEX 01 00:03:32
  TRACK 06 AUDIO
    TITLE "P1Q_t_1420-1429_06"
    INDEX 01 00:07:08
  TRACK 07 AUDIO
    TITLE "P1Q_t_1420-1429_07"
    INDEX 01 00:07:53
  TRACK 08 AUDIO
    TITLE "P1Q_t_1420-1429_08"
    INDEX 01 00:08:57
  TRACK 09 AUDIO
    TITLE "P1Q_t_1420-1429_09"
    INDEX 01 00:09:03
  TRACK 10 AUDIO
    TITLE "P1Q_t_1420-1429_10"
    INDEX 01 00:12:47
  TRACK 11 AUDIO
    TITLE "P1Q_t_1420-1429_11"
    INDEX 01 00:12:66
  TRACK 12 AUDIO
    TITLE "P1Q_t_1420-1429_12"
    INDEX 01 00:17:38
  TRACK 13 AUDIO
    TITLE "P1Q_t_1420-1429_13"
    INDEX 01 00:18:10
  TRACK 14 AUDIO
    TITLE "P1Q_t_1420-1429_14"
    INDEX 01 00:19:29
  TRACK 15 AUDIO
    TITLE "P1Q_t_1420-1429_15"
    INDEX 01 00:19:51
  TRACK 16 AUDIO
    TITLE "P1Q_t_1420-1429_16"
    INDEX 01 00:24:15
  TRACK 17 AUDIO
    TITLE "P1Q_t_1420-1429_17"
    INDEX 01 00:24:32
  TRACK 18 AUDIO
    TITLE "P1Q_t_1420-1429_18"
    INDEX 01 00:29:67
  TRACK 19 AUDIO
    TITLE "P1Q_t_1420-1429_19"
    INDEX 01 00:30:37
  TRACK 20 AUDIO
    TITLE "P1Q_t_1420-1429_20"
    INDEX 01 00:31:54
  TRACK 21 AUDIO
    TITLE "P1Q_t_1420-1429_21"
    INDEX 01 00:32:01
  TRACK 22 AUDIO
    TITLE "P1Q_t_1420-1429_22"
    INDEX 01 00:35:01
  TRACK 23 AUDIO
    TITLE "P1Q_t_1420-1429_23"
    INDEX 01 00:35:20
  TRACK 24 AUDIO
    TITLE "P1Q_t_1420-1429_24"
    INDEX 01 00:40:20
  TRACK 25 AUDIO
    TITLE "P1Q_t_1420-1429_25"
    INDEX 01 00:40:69
  TRACK 26 AUDIO
    TITLE "P1Q_t_1420-1429_26"
    INDEX 01 00:42:20
  TRACK 27 AUDIO
    TITLE "P1Q_t_1420-1429_27"
    INDEX 01 00:42:40
  TRACK 28 AUDIO
    TITLE "P1Q_t_1420-1429_28"
    INDEX 01 00:45:05
  TRACK 29 AUDIO
    TITLE "P1Q_t_1420-1429_29"
    INDEX 01 00:45:27
  TRACK 30 AUDIO
    TITLE "P1Q_t_1420-1429_30"
    INDEX 01 00:52:09
  TRACK 31 AUDIO
    TITLE "P1Q_t_1420-1429_31"
    INDEX 01 00:52:54
  TRACK 32 AUDIO
    TITLE "P1Q_t_1420-1429_32"
    INDEX 01 00:53:65
  TRACK 33 AUDIO
    TITLE "P1Q_t_1420-1429_33"
    INDEX 01 00:54:10
  TRACK 34 AUDIO
    TITLE "P1Q_t_1420-1429_34"
    INDEX 01 00:57:02
  TRACK 35 AUDIO
    TITLE "P1Q_t_1420-1429_35"
    INDEX 01 00:57:22
  TRACK 36 AUDIO
    TITLE "P1Q_t_1420-1429_36"
    INDEX 01 01:01:06
  TRACK 37 AUDIO
    TITLE "P1Q_t_1420-1429_37"
    INDEX 01 01:01:51
  TRACK 38 AUDIO
    TITLE "P1Q_t_1420-1429_38"
    INDEX 01 01:03:09
  TRACK 39 AUDIO
    TITLE "P1Q_t_1420-1429_39"
    INDEX 01 01:03:30
  TRACK 40 AUDIO
    TITLE "P1Q_t_1420-1429_40"
    INDEX 01 01:08:16
  TRACK 41 AUDIO
    TITLE "P1Q_t_1420-1429_41"
    INDEX 01 01:08:36
  TRACK 42 AUDIO
    TITLE "P1Q_t_1420-1429_42"
    INDEX 01 01:13:46
  TRACK 43 AUDIO
    TITLE "P1Q_t_1420-1429_43"
    INDEX 01 01:14:17
  TRACK 44 AUDIO
    TITLE "P1Q_t_1420-1429_44"
    INDEX 01 01:15:24
  TRACK 45 AUDIO
    TITLE "P1Q_t_1420-1429_45"
    INDEX 01 01:15:45
  TRACK 46 AUDIO
    TITLE "P1Q_t_1420-1429_46"
    INDEX 01 01:17:34
  TRACK 47 AUDIO
    TITLE "P1Q_t_1420-1429_47"
    INDEX 01 01:17:54
  TRACK 48 AUDIO
    TITLE "P1Q_t_1420-1429_48"
    INDEX 01 01:22:14
  TRACK 49 AUDIO
    TITLE "P1Q_t_1420-1429_49"
    INDEX 01 01:22:59
  TRACK 50 AUDIO
    TITLE "P1Q_t_1420-1429_50"
    INDEX 01 01:23:64
  TRACK 51 AUDIO
    TITLE "P1Q_t_1420-1429_51"
    INDEX 01 01:24:09
  TRACK 52 AUDIO
    TITLE "P1Q_t_1420-1429_52"
    INDEX 01 01:27:35
  TRACK 53 AUDIO
    TITLE "P1Q_t_1420-1429_53"
    INDEX 01 01:27:54
  TRACK 54 AUDIO
    TITLE "P1Q_t_1420-1429_54"
    INDEX 01 01:31:74
  TRACK 55 AUDIO
    TITLE "P1Q_t_1420-1429_55"
    INDEX 01 01:32:44
  TRACK 56 AUDIO
    TITLE "P1Q_t_1420-1429_56"
    INDEX 01 01:33:45
  TRACK 57 AUDIO
    TITLE "P1Q_t_1420-1429_57"
    INDEX 01 01:33:67
  TRACK 58 AUDIO
    TITLE "P1Q_t_1420-1429_58"
    INDEX 01 01:38:19
  TRACK 59 AUDIO
    TITLE "P1Q_t_1420-1429_59"
    INDEX 01 01:38:43
  TRACK 60 AUDIO
    TITLE "P1Q_t_1420-1429_60"
    INDEX 01 01:43:08
